<?xml version="1.0" encoding="UTF-8" standalone="no"?>
<!DOCTYPE svg PUBLIC "-//W3C//DTD SVG 1.1//EN"
 "http://www.w3.org/Graphics/SVG/1.1/DTD/svg11.dtd">
<!-- Generated by graphviz version 2.47.3 (0)
 -->
<!-- Pages: 1 -->
<svg width="127pt" height="306pt"
 viewBox="0.00 0.00 127.40 305.90" xmlns="http://www.w3.org/2000/svg" xmlns:xlink="http://www.w3.org/1999/xlink">
<g id="graph0" class="graph" transform="scale(1 1) rotate(0) translate(4 301.9)">
<polygon fill="white" stroke="transparent" points="-4,4 -4,-301.9 123.4,-301.9 123.4,4 -4,4"/>
<!-- fake0 -->
<g id="node1" class="node">
<title>fake0</title>
</g>
<!-- s0 -->
<g id="node4" class="node">
<title>s0</title>
<ellipse fill="none" stroke="black" cx="36.4" cy="-206.9" rx="27" ry="18"/>
<text text-anchor="middle" x="36.4" y="-203.2" font-family="Times,serif" font-size="14.00">s0</text>
</g>
<!-- fake0&#45;&gt;s0 -->
<g id="edge1" class="edge">
<title>fake0&#45;&gt;s0</title>
<path fill="none" stroke="black" stroke-width="2" d="M36.4,-261.71C36.4,-253.69 36.4,-243.94 36.4,-234.97"/>
<polygon fill="black" stroke="black" stroke-width="2" points="39.9,-234.93 36.4,-224.93 32.9,-234.93 39.9,-234.93"/>
</g>
<!-- s2 -->
<g id="node2" class="node">
<title>s2</title>
<ellipse fill="none" stroke="black" cx="36.4" cy="-25.45" rx="21.4" ry="21.4"/>
<ellipse fill="none" stroke="black" cx="36.4" cy="-25.45" rx="25.4" ry="25.4"/>
<text text-anchor="middle" x="36.4" y="-21.75" font-family="Times,serif" font-size="14.00">s2</text>
</g>
<!-- s1 -->
<g id="node3" class="node">
<title>s1</title>
<ellipse fill="none" stroke="black" cx="36.4" cy="-119.9" rx="27" ry="18"/>
<text text-anchor="middle" x="36.4" y="-116.2" font-family="Times,serif" font-size="14.00">s1</text>
</g>
<!-- s1&#45;&gt;s2 -->
<g id="edge4" class="edge">
<title>s1&#45;&gt;s2</title>
<path fill="none" stroke="black" d="M36.4,-101.51C36.4,-90.17 36.4,-74.98 36.4,-61.23"/>
<polygon fill="black" stroke="black" points="39.9,-61.09 36.4,-51.09 32.9,-61.09 39.9,-61.09"/>
<text text-anchor="middle" x="41.4" y="-72.7" font-family="Times,serif" font-size="14.00">1</text>
</g>
<!-- s1&#45;&gt;s1 -->
<g id="edge2" class="edge">
<title>s1&#45;&gt;s1</title>
<path fill="none" stroke="black" d="M63.19,-123.83C73.18,-123.95 81.4,-122.64 81.4,-119.9 81.4,-118.18 78.19,-117.02 73.34,-116.43"/>
<polygon fill="black" stroke="black" points="73.34,-112.93 63.19,-115.97 73.02,-119.92 73.34,-112.93"/>
<text text-anchor="middle" x="86.4" y="-116.2" font-family="Times,serif" font-size="14.00">0</text>
</g>
<!-- s1&#45;&gt;s1 -->
<g id="edge5" class="edge">
<title>s1&#45;&gt;s1</title>
<path fill="none" stroke="black" d="M61.63,-126.84C80.44,-129.27 99.4,-126.95 99.4,-119.9 99.4,-114.11 86.64,-111.51 71.67,-112.1"/>
<polygon fill="black" stroke="black" points="71.3,-108.62 61.63,-112.95 71.89,-115.6 71.3,-108.62"/>
<text text-anchor="middle" x="104.4" y="-116.2" font-family="Times,serif" font-size="14.00">1</text>
</g>
<!-- s0&#45;&gt;s1 -->
<g id="edge6" class="edge">
<title>s0&#45;&gt;s1</title>
<path fill="none" stroke="black" d="M36.4,-188.7C36.4,-177.06 36.4,-161.44 36.4,-148.13"/>
<polygon fill="black" stroke="black" points="39.9,-148.07 36.4,-138.07 32.9,-148.07 39.9,-148.07"/>
<text text-anchor="middle" x="41.4" y="-159.7" font-family="Times,serif" font-size="14.00">0</text>
</g>
<!-- s0&#45;&gt;s0 -->
<g id="edge3" class="edge">
<title>s0&#45;&gt;s0</title>
<path fill="none" stroke="black" d="M61.84,-213.59C72.42,-214.05 81.4,-211.82 81.4,-206.9 81.4,-203.67 77.53,-201.6 71.88,-200.68"/>
<polygon fill="black" stroke="black" points="72,-197.19 61.84,-200.21 71.66,-204.18 72,-197.19"/>
<text text-anchor="middle" x="86.4" y="-203.2" font-family="Times,serif" font-size="14.00">1</text>
</g>
</g>
</svg>
