<?xml version="1.0" encoding="UTF-8" standalone="no"?>
<!DOCTYPE svg PUBLIC "-//W3C//DTD SVG 1.1//EN"
 "http://www.w3.org/Graphics/SVG/1.1/DTD/svg11.dtd">
<!-- Generated by graphviz version 2.47.3 (0)
 -->
<!-- Pages: 1 -->
<svg width="94pt" height="219pt"
 viewBox="0.00 0.00 93.55 218.90" xmlns="http://www.w3.org/2000/svg" xmlns:xlink="http://www.w3.org/1999/xlink">
<g id="graph0" class="graph" transform="scale(1 1) rotate(0) translate(4 214.9)">
<polygon fill="white" stroke="transparent" points="-4,4 -4,-214.9 89.55,-214.9 89.55,4 -4,4"/>
<!-- fake -->
<g id="node1" class="node">
<title>fake</title>
</g>
<!-- s0 -->
<g id="node2" class="node">
<title>s0</title>
<ellipse fill="none" stroke="black" cx="30.55" cy="-112.45" rx="21.4" ry="21.4"/>
<ellipse fill="none" stroke="black" cx="30.55" cy="-112.45" rx="25.4" ry="25.4"/>
<text text-anchor="middle" x="30.55" y="-108.75" font-family="Times,serif" font-size="14.00">s0</text>
</g>
<!-- fake&#45;&gt;s0 -->
<g id="edge1" class="edge">
<title>fake&#45;&gt;s0</title>
<path fill="none" stroke="black" stroke-width="2" d="M30.55,-174.87C30.55,-167.08 30.55,-157.55 30.55,-148.33"/>
<polygon fill="black" stroke="black" stroke-width="2" points="34.05,-148.18 30.55,-138.18 27.05,-148.18 34.05,-148.18"/>
</g>
<!-- s0&#45;&gt;s0 -->
<g id="edge2" class="edge">
<title>s0&#45;&gt;s0</title>
<path fill="none" stroke="black" d="M55.11,-120.25C65.33,-120.79 74,-118.19 74,-112.45 74,-108.77 70.44,-106.38 65.2,-105.28"/>
<polygon fill="black" stroke="black" points="65.31,-101.78 55.11,-104.64 64.87,-108.77 65.31,-101.78"/>
<text text-anchor="middle" x="79" y="-108.75" font-family="Times,serif" font-size="14.00">1</text>
</g>
<!-- s1 -->
<g id="node3" class="node">
<title>s1</title>
<ellipse fill="none" stroke="black" cx="30.55" cy="-18" rx="27" ry="18"/>
<text text-anchor="middle" x="30.55" y="-14.3" font-family="Times,serif" font-size="14.00">s1</text>
</g>
<!-- s0&#45;&gt;s1 -->
<g id="edge4" class="edge">
<title>s0&#45;&gt;s1</title>
<path fill="none" stroke="black" d="M19.84,-89.21C16,-78.61 13.14,-65.71 15.55,-54 16.18,-50.93 17.09,-47.79 18.16,-44.72"/>
<polygon fill="black" stroke="black" points="21.47,-45.87 21.95,-35.29 14.97,-43.26 21.47,-45.87"/>
<text text-anchor="middle" x="20.55" y="-57.8" font-family="Times,serif" font-size="14.00">0</text>
</g>
<!-- s1&#45;&gt;s0 -->
<g id="edge5" class="edge">
<title>s1&#45;&gt;s0</title>
<path fill="none" stroke="black" d="M30.55,-36.23C30.55,-47.54 30.55,-62.74 30.55,-76.51"/>
<polygon fill="black" stroke="black" points="27.05,-76.67 30.55,-86.67 34.05,-76.67 27.05,-76.67"/>
<text text-anchor="middle" x="35.55" y="-57.8" font-family="Times,serif" font-size="14.00">0</text>
</g>
<!-- s1&#45;&gt;s1 -->
<g id="edge3" class="edge">
<title>s1&#45;&gt;s1</title>
<path fill="none" stroke="black" d="M55.08,-25.75C66.06,-26.49 75.55,-23.91 75.55,-18 75.55,-14.03 71.26,-11.56 65.12,-10.59"/>
<polygon fill="black" stroke="black" points="65.19,-7.09 55.08,-10.25 64.95,-14.09 65.19,-7.09"/>
<text text-anchor="middle" x="80.55" y="-14.3" font-family="Times,serif" font-size="14.00">1</text>
</g>
</g>
</svg>
