<?xml version="1.0" encoding="UTF-8" standalone="no"?>
<!DOCTYPE svg PUBLIC "-//W3C//DTD SVG 1.1//EN"
 "http://www.w3.org/Graphics/SVG/1.1/DTD/svg11.dtd">
<!-- Generated by graphviz version 2.47.3 (0)
 -->
<!-- Pages: 1 -->
<svg width="94pt" height="306pt"
 viewBox="0.00 0.00 93.55 305.90" xmlns="http://www.w3.org/2000/svg" xmlns:xlink="http://www.w3.org/1999/xlink">
<g id="graph0" class="graph" transform="scale(1 1) rotate(0) translate(4 301.9)">
<polygon fill="white" stroke="transparent" points="-4,4 -4,-301.9 89.55,-301.9 89.55,4 -4,4"/>
<!-- fake -->
<g id="node1" class="node">
<title>fake</title>
</g>
<!-- s0 -->
<g id="node4" class="node">
<title>s0</title>
<ellipse fill="none" stroke="black" cx="30.55" cy="-206.9" rx="27" ry="18"/>
<text text-anchor="middle" x="30.55" y="-203.2" font-family="Times,serif" font-size="14.00">s0</text>
</g>
<!-- fake&#45;&gt;s0 -->
<g id="edge1" class="edge">
<title>fake&#45;&gt;s0</title>
<path fill="none" stroke="black" stroke-width="2" d="M30.55,-261.71C30.55,-253.69 30.55,-243.94 30.55,-234.97"/>
<polygon fill="black" stroke="black" stroke-width="2" points="34.05,-234.93 30.55,-224.93 27.05,-234.93 34.05,-234.93"/>
</g>
<!-- s2 -->
<g id="node2" class="node">
<title>s2</title>
<ellipse fill="none" stroke="black" cx="30.55" cy="-25.45" rx="21.4" ry="21.4"/>
<ellipse fill="none" stroke="black" cx="30.55" cy="-25.45" rx="25.4" ry="25.4"/>
<text text-anchor="middle" x="30.55" y="-21.75" font-family="Times,serif" font-size="14.00">s2</text>
</g>
<!-- s1 -->
<g id="node3" class="node">
<title>s1</title>
<ellipse fill="none" stroke="black" cx="30.55" cy="-119.9" rx="27" ry="18"/>
<text text-anchor="middle" x="30.55" y="-116.2" font-family="Times,serif" font-size="14.00">s1</text>
</g>
<!-- s1&#45;&gt;s2 -->
<g id="edge5" class="edge">
<title>s1&#45;&gt;s2</title>
<path fill="none" stroke="black" d="M30.55,-101.51C30.55,-90.17 30.55,-74.98 30.55,-61.23"/>
<polygon fill="black" stroke="black" points="34.05,-61.09 30.55,-51.09 27.05,-61.09 34.05,-61.09"/>
<text text-anchor="middle" x="35.55" y="-72.7" font-family="Times,serif" font-size="14.00">1</text>
</g>
<!-- s1&#45;&gt;s1 -->
<g id="edge2" class="edge">
<title>s1&#45;&gt;s1</title>
<path fill="none" stroke="black" d="M55.08,-127.65C66.06,-128.39 75.55,-125.8 75.55,-119.9 75.55,-115.93 71.26,-113.46 65.12,-112.49"/>
<polygon fill="black" stroke="black" points="65.19,-108.99 55.08,-112.14 64.95,-115.99 65.19,-108.99"/>
<text text-anchor="middle" x="80.55" y="-116.2" font-family="Times,serif" font-size="14.00">0</text>
</g>
<!-- s0&#45;&gt;s1 -->
<g id="edge3" class="edge">
<title>s0&#45;&gt;s1</title>
<path fill="none" stroke="black" d="M30.55,-188.7C30.55,-177.06 30.55,-161.44 30.55,-148.13"/>
<polygon fill="black" stroke="black" points="34.05,-148.07 30.55,-138.07 27.05,-148.07 34.05,-148.07"/>
<text text-anchor="middle" x="35.55" y="-159.7" font-family="Times,serif" font-size="14.00">0</text>
</g>
<!-- s0&#45;&gt;s0 -->
<g id="edge4" class="edge">
<title>s0&#45;&gt;s0</title>
<path fill="none" stroke="black" d="M55.99,-213.59C66.58,-214.05 75.55,-211.82 75.55,-206.9 75.55,-203.67 71.68,-201.6 66.04,-200.68"/>
<polygon fill="black" stroke="black" points="66.15,-197.19 55.99,-200.21 65.81,-204.18 66.15,-197.19"/>
<text text-anchor="middle" x="80.55" y="-203.2" font-family="Times,serif" font-size="14.00">1</text>
</g>
</g>
</svg>
